<svg xmlns="http://www.w3.org/2000/svg" id="Layer_1" data-name="Layer 1" viewBox="0 0 1340 465.88"><defs><style>.cls-1{fill:#006095;}.cls-2{fill:#69ac40;}.cls-3{fill:#008bc0;}</style></defs><title>Regular Logo - TRITUSA</title><path class="cls-1" d="M213.49,258.5c-13.89-6.13-27.18-11.92-37.66-22.48-14.78-14.9-15-31.32-.35-46.3,10.24-10.51,23.12-16.8,36.56-22,12.57-4.83,25.6-8.15,38.78-11,4.7-1,6.93-.5,6.91,5.19-.17,48.54-.1,97.09-.11,145.63,0,2,.24,4.24-1.35,5.83-7.12,7.11-14.31,14.15-22.71,22.44v-10q0-63.6,0-127.21c0-9.35-.48-9.72-8.14-5A87.52,87.52,0,0,0,212,203.54c-16.62,15.36-17,31.31-1.54,48C212,253.22,214.33,254.48,213.49,258.5Z"></path><path class="cls-1" d="M424.88,174.75c-27.92-4.76-56.44-8.6-85.44-7.66-5.87.19-8.11,1.49-7.95,7.81.43,17.25-.12,34.52.28,51.77.15,6.64-1.4,11.77-6.55,16.15-5.7,4.85-10.91,10.27-16.39,15.5-2.07-2-1.14-4.5-1.14-6.68-.08-30.72.11-61.43-.19-92.14-.06-6.4,1.46-8.63,8.26-8.47,29.36.72,58.38,3.4,86.61,12.09C410.71,165.68,418.85,168.58,424.88,174.75Z"></path><path class="cls-2" d="M151.69,221.24c-20.21-5.6-28.54-30.6-15.8-47.89,7.49-10.16,18-16.56,29.15-21.88,27.64-13.15,57.22-18.78,87.39-20.54,32.12-1.88,64.3-1.37,95.94,6,3.13.73,6.28,1.38,9.38,2.22a13.3,13.3,0,0,1,5.52,2.83c-14.17-1.13-28.31-2.68-42.5-3.32-42.69-1.93-84.7,1.71-125.13,16.75-13.49,5-26.29,11.46-36.84,21.52C144.57,190.49,142.53,203.79,151.69,221.24Z"></path><path class="cls-3" d="M270.56,295.72V235.47c0-24.84.15-49.67-.12-74.5-.06-5.61,1.78-7.61,7.31-8.17,16.9-1.73,16.88-1.93,16.88,15.23,0,31.85-.23,63.69.17,95.53.1,7.65-1.84,13.34-7.61,18.35-5.23,4.54-9.73,9.93-14.54,14.94Z"></path><path class="cls-1" d="M1207.47,221.48l-.15,0a35.1,35.1,0,0,0-24.43-23.31A93.08,93.08,0,0,0,1164.4,196h-59.47v23.22l48.44.21a48.09,48.09,0,0,1,19.33,3.39c5.1,2.31,7.4,8,7,17.25l-38.15.24a69.18,69.18,0,0,0-29.89,5.94q-12.54,6-14,26.19-.83,16.86,8.18,26.31c6,6.3,14.64,9.48,25.92,9.48h78.1V238.12A59.58,59.58,0,0,0,1207.47,221.48Zm-27.61,64h-36.22v.21a44.79,44.79,0,0,1-11.16-1.69c-3.3-1-4.78-4.28-4.51-9.82.15-4.94,1.88-8.13,5.21-9.46a31.53,31.53,0,0,1,10.91-2.24h.85a1.73,1.73,0,0,0,.85-.24H1180ZM1071,246.94v0a45.93,45.93,0,0,0-25.88-7.36l-26.34.24a20.08,20.08,0,0,1-10.67-2.79c-3-1.85-4-5.24-2.91-10.21a8.38,8.38,0,0,1,1.58-3.34,7.43,7.43,0,0,1,2.93-2.21,20.28,20.28,0,0,1,7.19-1.7h7a3,3,0,0,0,1.12-.21h51.4V195.93l-62.43.21q-17.78,0-28.43,8.1t-10.43,27.82q.18,20.87,10.34,26t27.67,4.88l25.06.22h2.52a25.21,25.21,0,0,1,9,2.54,8.28,8.28,0,0,1,3.34,3.52,8.7,8.7,0,0,1,.85,4.85q0,6.58-4.4,8.72a24.52,24.52,0,0,1-9.61,2.34H1039a1.73,1.73,0,0,1-.85-.21H977v23.42h75a25.25,25.25,0,0,0,12.64-2.63,25.79,25.79,0,0,0,9.85-8.49A41.14,41.14,0,0,0,1082,272.4v-.64Q1081.44,254.08,1071,246.94Zm-147.45-51v87.59l-23.4.18c-7.09,0-12.06-1.27-14.85-3.84s-4.15-7.58-4.15-15.1V195.93h-29v71.38q0,23.78,12.34,32.37t33.4,8.51h54.7V195.93ZM835.8,218.3V196.05H805.09V155.26H805L776,174.56v21.37H755.57v22.25H776v55.07q0,16.19,8.39,25.55c5.58,6.24,13.85,9.39,24.83,9.39H835.8V285.92h-1.88a65.29,65.29,0,0,1-21.34-2.76c-5.12-1.88-7.64-8.4-7.49-19.61V218.3ZM710.86,195.93V308.22h30.52V195.93ZM689,207q-3.76-10.81-27.37-11.06V196H612.73V308.22h29V217.66h3.15q15.06,0,17.46,2.55c1.58,1.7,2.39,7.76,2.39,18.09V243l27.77.21v-7A89,89,0,0,0,689,207Z"></path><path class="cls-1" d="M470.89,182.08h48.25V308.19h32.73V182.08h48.49V155.47H470.89Z"></path><polygon class="cls-1" points="726.04 147.62 704.94 164.67 723.76 184.9 744.85 167.85 726.04 147.62"></polygon><path class="cls-1" d="M805,155.26,776,174.56"></path></svg>